<svg width="200" height="200" viewBox="0 0 200 200" fill="none" xmlns="http://www.w3.org/2000/svg">
<circle cx="100" cy="100" r="98.5" fill="#F0FFFF" stroke="black" stroke-width="3" stroke-dasharray="10 10"/>
<path d="M47.08 81.716H61.552V92.336H66.376V81.716H80.92V77.576H47.08V81.716ZM71.092 75.884H75.916L78.148 59.288H49.888V63.392H72.856L72.28 67.316H50.608V71.348H71.74L71.092 75.884ZM109.648 91.976H114.436V58.352H109.648V91.976ZM92.944 89.204H98.236L104.356 59.972H84.16V64.076H98.524L96.832 71.672H84.88V75.776H95.932L92.944 89.204ZM79.3 103.352H74.584V115.016H70.372V103.352H65.656V136.436H70.372V119.336H74.584V136.976H79.3V103.352ZM62.2 108.752V104.612H48.556V133.556L63.388 131.684V127.544L53.272 128.84V108.752H62.2ZM95.104 103.712V108.86H89.272V103.712H84.628V122.216H99.712V103.712H95.104ZM89.272 118.112V112.964H95.104V118.112H89.272ZM107.416 114.944H110.8V123.62H115.48V103.352H110.8V110.624H107.416V103.352H102.736V123.26H107.416V114.944ZM115.48 137.156V125.06H88.48V129.2H110.656V137.156H115.48ZM144.1 136.976H148.888V119.912H153.892V115.7H148.888V103.352H144.1V136.976ZM138.52 124.376L140.032 105.008H120.124V109.148H134.884L133.732 124.376H138.52ZM118.684 129.596V133.736L142.264 132.296V128.156L129.484 128.948V117.248H124.696V129.236L118.684 129.596Z" fill="black"/>
</svg>
